<?xml version="1.0" encoding="utf-8"?>
<!-- Generator: Adobe Illustrator 15.1.0, SVG Export Plug-In . SVG Version: 6.00 Build 0)  -->
<!DOCTYPE svg PUBLIC "-//W3C//DTD SVG 1.1//EN" "http://www.w3.org/Graphics/SVG/1.1/DTD/svg11.dtd">
<svg version="1.1" id="Capa_1" xmlns="http://www.w3.org/2000/svg" xmlns:xlink="http://www.w3.org/1999/xlink" x="0px" y="0px"
	 width="561px" height="561px" viewBox="0 0 561 561" enable-background="new 0 0 561 561" xml:space="preserve">
<g>
	<g id="loop">
		<path d="M484.5,280.5H561l-102-102l-102,102h76.5c0,84.149-68.851,153-153,153c-25.5,0-51-7.65-71.4-17.851l-38.25,38.25
			C204,471.75,239.7,484.5,280.5,484.5C392.7,484.5,484.5,392.699,484.5,280.5z M127.5,280.5c0-84.15,68.85-153,153-153
			c25.5,0,51,7.649,71.4,17.85l38.25-38.25C357,89.25,321.3,76.5,280.5,76.5c-112.2,0-204,91.8-204,204H0l102,102l102-102H127.5z"/>
	</g>
</g>
</svg>
